<?xml version="1.0" encoding="UTF-8" standalone="no"?>
<!DOCTYPE svg PUBLIC "-//W3C//DTD SVG 1.1//EN" "http://www.w3.org/Graphics/SVG/1.1/DTD/svg11.dtd">
<!-- Created with Vectornator (http://vectornator.io/) -->
<svg height="100%" stroke-miterlimit="10" style="fill-rule:nonzero;clip-rule:evenodd;stroke-linecap:round;stroke-linejoin:round;" version="1.1" viewBox="0 0 256 256" width="100%" xml:space="preserve" xmlns="http://www.w3.org/2000/svg" xmlns:vectornator="http://vectornator.io" xmlns:xlink="http://www.w3.org/1999/xlink">
<defs/>
<g id="Untitled" vectornator:layerName="Untitled">
<path d="M139.153 130.307C139.153 134.695 135.596 138.252 131.208 138.252C126.82 138.252 123.263 134.695 123.263 130.307C123.263 125.919 126.82 122.362 131.208 122.362C135.594 122.367 139.148 125.921 139.153 130.307ZM156.036 119.383L156.036 141.231C156.027 148.906 149.807 155.126 142.132 155.135L120.284 155.135C112.609 155.126 106.389 148.906 106.38 141.231L106.38 119.383C106.389 111.708 112.609 105.488 120.284 105.48L142.132 105.48C149.807 105.488 156.027 111.708 156.036 119.383ZM143.125 130.307C143.125 123.725 137.79 118.39 131.208 118.39C124.626 118.39 119.291 123.725 119.291 130.307C119.291 136.889 124.626 142.224 131.208 142.224C137.787 142.217 143.118 136.886 143.125 130.307ZM147.098 117.397C147.098 115.751 145.764 114.417 144.118 114.417C142.473 114.417 141.139 115.751 141.139 117.397C141.139 119.042 142.473 120.376 144.118 120.376C145.764 120.376 147.098 119.042 147.098 117.397Z" fill="#000000" fill-rule="nonzero" opacity="1" stroke="none"/>
</g>
</svg>
